<svg data-v-fde0c5aa="" xmlns="http://www.w3.org/2000/svg" viewBox="0 0 300 300" class="iconLeftSlogan"><!----><defs data-v-fde0c5aa=""><!----></defs><rect data-v-fde0c5aa="" fill="transparent" x="0" y="0" width="300px" height="300px" class="logo-background-square"></rect><defs data-v-fde0c5aa=""><!----></defs><g data-v-fde0c5aa="" id="c95a5830-33ad-4e0b-9b95-55d5f1162dba" fill="#000000" transform="matrix(2.3586197460230105,0,0,2.3586197460230105,114.33416462930339,118.03523158764796)"><path d="M6.52 9.47L6.52 9.47L6.52 9.47Q6.40 9.69 6.18 9.88L6.18 9.88L6.18 9.88Q5.96 10.07 5.78 10.11L5.78 10.11L5.78 10.11Q5.60 10.15 5.56 10.04L5.56 10.04L5.56 10.04Q5.32 9.39 4.79 8.94L4.79 8.94L4.79 8.94Q4.27 8.48 3.70 8.40L3.70 8.40L3.70 8.40Q3.12 8.32 2.80 8.50L2.80 8.50L2.80 8.50Q2.52 9.09 2.95 9.74L2.95 9.74L2.95 9.74Q3.33 10.32 4.47 10.77L4.47 10.77L4.47 10.77Q5.24 11.07 5.49 11.21L5.49 11.21L5.49 11.21Q6.61 11.90 6.58 12.98L6.58 12.98L6.58 12.98Q6.55 13.83 5.77 14.62L5.77 14.62L5.77 14.62Q4.34 16.03 2.53 15.15L2.53 15.15L2.53 15.15Q1.51 14.64 0.85 13.59L0.85 13.59L0.85 13.59Q0.80 13.50 0.90 13.29L0.90 13.29L0.90 13.29Q1.01 13.08 1.22 12.88L1.22 12.88L1.22 12.88Q1.43 12.68 1.62 12.61L1.62 12.61L1.62 12.61Q1.82 12.54 1.88 12.64L1.88 12.64L1.88 12.64Q2.63 13.83 3.81 14.25L3.81 14.25L3.81 14.25Q4.56 14.52 5.17 14.32L5.17 14.32L5.17 14.32Q5.36 14.25 5.40 14.20L5.40 14.20L5.40 14.20Q5.59 13.89 5.47 13.40L5.47 13.40L5.47 13.40Q5.28 12.50 3.92 11.96L3.92 11.96L3.92 11.96Q3.86 11.93 3.60 11.83L3.60 11.83L3.60 11.83Q2.84 11.54 2.59 11.34L2.59 11.34L2.59 11.34Q1.32 10.42 1.75 9.13L1.75 9.13L1.75 9.13Q1.92 8.61 2.31 8.20L2.31 8.20L2.31 8.20Q3.30 7.17 4.47 7.34L4.47 7.34L4.47 7.34Q5.19 7.43 5.77 7.93L5.77 7.93L5.77 7.93Q6.34 8.43 6.59 9.14L6.59 9.14L6.59 9.14Q6.64 9.25 6.52 9.47ZM14.08 13.96L14.08 13.96L14.08 13.96Q14.25 13.93 14.28 14.06L14.28 14.06L14.28 14.06Q14.31 14.20 14.16 14.42L14.16 14.42L14.16 14.42Q14.01 14.64 13.66 14.92L13.66 14.92L13.66 14.92Q13.31 15.20 12.92 15.36L12.92 15.36L12.92 15.36Q12.15 15.67 11.97 15.08L11.97 15.08L11.97 15.08Q11.89 14.84 11.90 14.20L11.90 14.20L11.90 14.20Q11.17 15.08 10.43 15.34L10.43 15.34L10.43 15.34Q9.69 15.61 9.04 15.43L9.04 15.43L9.04 15.43Q7.04 14.87 7.84 10.81L7.84 10.81L7.84 10.81Q8.11 9.46 8.78 8.60L8.78 8.60L8.78 8.60Q9.93 7.11 11.59 7.34L11.59 7.34L11.59 7.34Q12.29 7.42 12.68 7.85L12.68 7.85L12.68 7.85Q13.01 7.42 13.36 7.34L13.36 7.34L13.36 7.34Q13.47 7.31 13.53 7.36L13.53 7.36L13.53 7.36Q13.59 7.41 13.58 7.52L13.58 7.52L13.58 7.52Q12.77 13.44 13.01 14.18L13.01 14.18L13.01 14.18Q13.12 14.52 13.37 14.39L13.37 14.39L13.37 14.39Q13.48 14.34 13.69 14.16L13.69 14.16L13.69 14.16Q13.90 13.99 14.08 13.96ZM11.97 12.80L11.97 12.80L11.97 12.80Q12.07 11.68 12.11 11.37L12.11 11.37L12.11 11.37Q12.47 8.62 10.75 8.40L10.75 8.40L10.75 8.40Q10.33 8.34 10.02 8.41L10.02 8.41L10.02 8.41Q9.60 8.50 9.45 8.68L9.45 8.68L9.45 8.68Q9.10 9.13 8.88 10.28L8.88 10.28L8.88 10.28Q8.65 11.42 8.68 12.31L8.68 12.31L8.68 12.31Q8.76 14.04 9.91 14.36L9.91 14.36L9.91 14.36Q10.79 14.62 11.27 14.04L11.27 14.04L11.27 14.04Q11.62 13.62 11.97 12.80ZM20.38 4.07L20.38 4.07Q20.40 3.91 20.57 3.69L20.57 3.69L20.57 3.69Q20.73 3.47 20.92 3.35L20.92 3.35L20.92 3.35Q21.10 3.22 21.21 3.19L21.21 3.19L21.21 3.19Q21.46 3.12 21.45 3.35L21.45 3.35L20.50 14.55L20.50 14.55Q20.48 14.70 20.31 14.92L20.31 14.92L20.31 14.92Q20.15 15.15 19.96 15.27L19.96 15.27L19.96 15.27Q19.78 15.40 19.67 15.43L19.67 15.43L19.67 15.43Q19.42 15.50 19.43 15.27L19.43 15.27L19.53 14.17L19.53 14.17Q18.82 15.05 18.06 15.33L18.06 15.33L18.06 15.33Q17.30 15.61 16.66 15.43L16.66 15.43L16.66 15.43Q14.67 14.85 15.46 10.81L15.46 10.81L15.46 10.81Q15.72 9.46 16.39 8.60L16.39 8.60L16.39 8.60Q17.56 7.11 19.21 7.34L19.21 7.34L19.21 7.34Q19.73 7.41 20.08 7.64L20.08 7.64L20.38 4.07ZM19.66 12.66L19.88 10.05L19.88 10.05Q19.70 8.55 18.37 8.40L18.37 8.40L18.37 8.40Q17.96 8.36 17.65 8.41L17.65 8.41L17.65 8.41Q17.21 8.50 17.07 8.68L17.07 8.68L17.07 8.68Q16.72 9.14 16.52 10.16L16.52 10.16L16.52 10.16Q15.79 13.89 17.53 14.36L17.53 14.36L17.53 14.36Q18.41 14.62 18.89 14.04L18.89 14.04L18.89 14.04Q19.25 13.61 19.61 12.74L19.61 12.74L19.61 12.74Q19.63 12.70 19.66 12.66L19.66 12.66ZM28.18 13.96L28.18 13.96L28.18 13.96Q28.35 13.93 28.38 14.06L28.38 14.06L28.38 14.06Q28.41 14.20 28.26 14.42L28.26 14.42L28.26 14.42Q28.11 14.64 27.76 14.92L27.76 14.92L27.76 14.92Q27.41 15.20 27.02 15.36L27.02 15.36L27.02 15.36Q26.25 15.67 26.07 15.08L26.07 15.08L26.07 15.08Q25.98 14.84 26.00 14.20L26.00 14.20L26.00 14.20Q25.27 15.08 24.53 15.34L24.53 15.34L24.53 15.34Q23.79 15.61 23.14 15.43L23.14 15.43L23.14 15.43Q21.14 14.87 21.94 10.81L21.94 10.81L21.94 10.81Q22.20 9.46 22.88 8.60L22.88 8.60L22.88 8.60Q24.02 7.11 25.69 7.34L25.69 7.34L25.69 7.34Q26.39 7.42 26.78 7.85L26.78 7.85L26.78 7.85Q27.10 7.42 27.45 7.34L27.45 7.34L27.45 7.34Q27.57 7.31 27.63 7.36L27.63 7.36L27.63 7.36Q27.69 7.41 27.68 7.52L27.68 7.52L27.68 7.52Q26.87 13.44 27.10 14.18L27.10 14.18L27.10 14.18Q27.22 14.52 27.47 14.39L27.47 14.39L27.47 14.39Q27.58 14.34 27.79 14.16L27.79 14.16L27.79 14.16Q28.00 13.99 28.18 13.96ZM26.07 12.80L26.07 12.80L26.07 12.80Q26.17 11.68 26.21 11.37L26.21 11.37L26.21 11.37Q26.57 8.62 24.85 8.40L24.85 8.40L24.85 8.40Q24.43 8.34 24.12 8.41L24.12 8.41L24.12 8.41Q23.70 8.50 23.55 8.68L23.55 8.68L23.55 8.68Q23.20 9.13 22.97 10.28L22.97 10.28L22.97 10.28Q22.75 11.42 22.78 12.31L22.78 12.31L22.78 12.31Q22.86 14.04 24.01 14.36L24.01 14.36L24.01 14.36Q24.89 14.62 25.37 14.04L25.37 14.04L25.37 14.04Q25.72 13.62 26.07 12.80ZM32.12 15.44L32.12 15.44L32.12 15.44Q30.93 15.44 30.28 14.63L30.28 14.63L30.28 14.63Q30.24 14.77 30.09 14.96L30.09 14.96L30.09 14.96Q29.95 15.15 29.76 15.27L29.76 15.27L29.76 15.27Q29.58 15.40 29.47 15.43L29.47 15.43L29.47 15.43Q29.22 15.50 29.23 15.27L29.23 15.27L30.21 4.09L30.21 4.09Q30.23 3.93 30.39 3.71L30.39 3.71L30.39 3.71Q30.56 3.49 30.74 3.36L30.74 3.36L30.74 3.36Q30.93 3.23 31.04 3.21L31.04 3.21L31.04 3.21Q31.29 3.14 31.28 3.36L31.28 3.36L30.87 8.02L30.87 8.02Q31.63 7.32 32.54 7.34L32.54 7.34L32.54 7.34Q34.31 7.35 34.97 8.40L34.97 8.40L34.97 8.40Q35.63 9.45 35.20 11.35L35.20 11.35L35.20 11.35Q34.76 13.24 34.09 14.20L34.09 14.20L34.09 14.20Q33.64 14.81 33.10 15.13L33.10 15.13L33.10 15.13Q32.56 15.44 32.12 15.44ZM30.62 10.82L30.58 11.40L30.58 11.40Q30.58 11.41 30.58 11.42L30.58 11.42L30.58 11.42Q30.81 14.38 32.90 14.38L32.90 14.38L32.90 14.38Q33.19 14.38 33.24 14.33L33.24 14.33L33.24 14.33Q33.29 14.28 33.32 14.24L33.32 14.24L33.35 14.20L33.35 14.20Q33.78 13.59 34.12 12.14L34.12 12.14L34.12 12.14Q34.54 10.26 33.96 9.34L33.96 9.34L33.96 9.34Q33.38 8.41 31.75 8.40L31.75 8.40L31.75 8.40Q31.35 8.40 31.15 8.53L31.15 8.53L31.15 8.53Q30.97 8.75 30.83 9.43L30.83 9.43L30.83 9.43Q30.69 10.11 30.67 10.42L30.67 10.42L30.67 10.42Q30.66 10.74 30.62 10.82L30.62 10.82ZM42.44 13.96L42.44 13.96L42.44 13.96Q42.62 13.93 42.64 14.06L42.64 14.06L42.64 14.06Q42.67 14.20 42.52 14.42L42.52 14.42L42.52 14.42Q42.38 14.64 42.03 14.92L42.03 14.92L42.03 14.92Q41.68 15.20 41.29 15.36L41.29 15.36L41.29 15.36Q40.52 15.67 40.33 15.08L40.33 15.08L40.33 15.08Q40.25 14.84 40.26 14.20L40.26 14.20L40.26 14.20Q39.54 15.08 38.79 15.34L38.79 15.34L38.79 15.34Q38.05 15.61 37.41 15.43L37.41 15.43L37.41 15.43Q35.41 14.87 36.20 10.81L36.20 10.81L36.20 10.81Q36.47 9.46 37.14 8.60L37.14 8.60L37.14 8.60Q38.29 7.11 39.96 7.34L39.96 7.34L39.96 7.34Q40.66 7.42 41.05 7.85L41.05 7.85L41.05 7.85Q41.37 7.42 41.72 7.34L41.72 7.34L41.72 7.34Q41.83 7.31 41.90 7.36L41.90 7.36L41.90 7.36Q41.96 7.41 41.94 7.52L41.94 7.52L41.94 7.52Q41.13 13.44 41.37 14.18L41.37 14.18L41.37 14.18Q41.48 14.52 41.73 14.39L41.73 14.39L41.73 14.39Q41.85 14.34 42.06 14.16L42.06 14.16L42.06 14.16Q42.27 13.99 42.44 13.96ZM40.33 12.80L40.33 12.80L40.33 12.80Q40.43 11.68 40.47 11.37L40.47 11.37L40.47 11.37Q40.84 8.62 39.12 8.40L39.12 8.40L39.12 8.40Q38.70 8.34 38.39 8.41L38.39 8.41L38.39 8.41Q37.97 8.50 37.81 8.68L37.81 8.68L37.81 8.68Q37.46 9.13 37.24 10.28L37.24 10.28L37.24 10.28Q37.02 11.42 37.04 12.31L37.04 12.31L37.04 12.31Q37.13 14.04 38.28 14.36L38.28 14.36L38.28 14.36Q39.16 14.62 39.63 14.04L39.63 14.04L39.63 14.04Q39.98 13.62 40.33 12.80ZM44.44 4.02L44.44 4.02Q44.45 3.85 44.62 3.63L44.62 3.63L44.62 3.63Q44.79 3.40 44.97 3.28L44.97 3.28L44.97 3.28Q45.15 3.16 45.26 3.14L45.26 3.14L45.26 3.14Q45.51 3.07 45.50 3.29L45.50 3.29L45.02 8.54L45.02 8.54Q45.46 8.02 46.04 7.68L46.04 7.68L46.04 7.68Q46.62 7.34 47.21 7.34L47.21 7.34L47.21 7.34Q49.60 7.31 49.25 10.63L49.25 10.63L48.92 14.55L48.92 14.55Q48.90 14.70 48.73 14.92L48.73 14.92L48.73 14.92Q48.57 15.15 48.38 15.27L48.38 15.27L48.38 15.27Q48.20 15.40 48.09 15.43L48.09 15.43L48.09 15.43Q47.84 15.50 47.85 15.27L47.85 15.27L48.19 11.35L48.19 11.35Q48.51 8.39 46.45 8.40L46.45 8.40L46.45 8.40Q46.05 8.40 45.85 8.51L45.85 8.51L45.85 8.51Q45.36 8.79 44.94 10.05L44.94 10.05L44.94 10.05Q44.91 10.14 44.86 10.23L44.86 10.23L44.46 14.55L44.46 14.55Q44.45 14.70 44.28 14.93L44.28 14.93L44.28 14.93Q44.11 15.16 43.93 15.28L43.93 15.28L43.93 15.28Q43.75 15.40 43.64 15.43L43.64 15.43L43.64 15.43Q43.39 15.50 43.40 15.27L43.40 15.27L44.44 4.02ZM56.60 13.96L56.60 13.96L56.60 13.96Q56.77 13.93 56.80 14.06L56.80 14.06L56.80 14.06Q56.83 14.20 56.68 14.42L56.68 14.42L56.68 14.42Q56.53 14.64 56.18 14.92L56.18 14.92L56.18 14.92Q55.83 15.20 55.44 15.36L55.44 15.36L55.44 15.36Q54.67 15.67 54.49 15.08L54.49 15.08L54.49 15.08Q54.40 14.84 54.42 14.20L54.42 14.20L54.42 14.20Q53.69 15.08 52.95 15.34L52.95 15.34L52.95 15.34Q52.21 15.61 51.56 15.43L51.56 15.43L51.56 15.43Q49.56 14.87 50.36 10.81L50.36 10.81L50.36 10.81Q50.62 9.46 51.30 8.60L51.30 8.60L51.30 8.60Q52.44 7.11 54.11 7.34L54.11 7.34L54.11 7.34Q54.81 7.42 55.20 7.85L55.20 7.85L55.20 7.85Q55.52 7.42 55.87 7.34L55.87 7.34L55.87 7.34Q55.99 7.31 56.05 7.36L56.05 7.36L56.05 7.36Q56.11 7.41 56.10 7.52L56.10 7.52L56.10 7.52Q55.29 13.44 55.52 14.18L55.52 14.18L55.52 14.18Q55.64 14.52 55.89 14.39L55.89 14.39L55.89 14.39Q56.00 14.34 56.21 14.16L56.21 14.16L56.21 14.16Q56.42 13.99 56.60 13.96ZM54.49 12.80L54.49 12.80L54.49 12.80Q54.59 11.68 54.63 11.37L54.63 11.37L54.63 11.37Q54.99 8.62 53.27 8.40L53.27 8.40L53.27 8.40Q52.85 8.34 52.54 8.41L52.54 8.41L52.54 8.41Q52.12 8.50 51.97 8.68L51.97 8.68L51.97 8.68Q51.62 9.13 51.39 10.28L51.39 10.28L51.39 10.28Q51.17 11.42 51.20 12.31L51.20 12.31L51.20 12.31Q51.28 14.04 52.43 14.36L52.43 14.36L52.43 14.36Q53.31 14.62 53.79 14.04L53.79 14.04L53.79 14.04Q54.14 13.62 54.49 12.80ZM58.41 8.22L58.41 8.22Q58.42 8.06 58.59 7.84L58.59 7.84L58.59 7.84Q58.76 7.62 58.94 7.50L58.94 7.50L58.94 7.50Q59.12 7.38 59.25 7.35L59.25 7.35L59.25 7.35Q59.50 7.29 59.47 7.50L59.47 7.50L59.40 8.12L59.40 8.12Q60.48 7.21 61.63 7.34L61.63 7.34L61.63 7.34Q61.82 7.36 61.73 7.63L61.73 7.63L61.73 7.63Q61.59 7.99 61.26 8.20L61.26 8.20L61.26 8.20Q60.94 8.41 60.82 8.40L60.82 8.40L60.82 8.40Q60.10 8.32 59.60 8.69L59.60 8.69L59.60 8.69Q59.36 8.88 59.26 9.55L59.26 9.55L58.73 14.56L58.73 14.56Q58.72 14.73 58.55 14.95L58.55 14.95L58.55 14.95Q58.38 15.16 58.20 15.28L58.20 15.28L58.20 15.28Q58.02 15.40 57.89 15.43L57.89 15.43L57.89 15.43Q57.64 15.48 57.67 15.26L57.67 15.26L58.18 10.36L58.18 10.36Q58.18 10.33 58.20 10.25L58.20 10.25L58.41 8.22Z"></path></g><defs data-v-fde0c5aa=""><linearGradient data-v-fde0c5aa="" gradientTransform="rotate(25)" id="a2589f4d-7f17-40fb-ab58-8fdafc5c6915" x1="0%" y1="0%" x2="100%" y2="0%"><stop data-v-fde0c5aa="" offset="0%" stop-color="#913C00" stop-opacity="1"></stop><stop data-v-fde0c5aa="" offset="100%" stop-color="#D9AD76" stop-opacity="1"></stop></linearGradient></defs><g data-v-fde0c5aa="" id="8567c143-9c8b-443e-957a-01811655e45c" stroke="none" fill="url(#a2589f4d-7f17-40fb-ab58-8fdafc5c6915)" transform="matrix(4.284604503553322,0,0,4.284604503553322,2.937106202102946,81.62165301995216)"><path d="M16.211 16.789c-2.35-2.19-2.822-5.607-1.411-8.324a7.558 7.558 0 0 0-4.183 2.281 7.604 7.604 0 0 0 11.119 10.373 7.516 7.516 0 0 0 1.688-2.92c-2.403.899-5.208.461-7.213-1.41z"></path></g><defs data-v-fde0c5aa=""><!----></defs><g data-v-fde0c5aa="" id="8d6da701-dbb8-4989-8772-b0cd8cf39b5d" fill="#000000" transform="matrix(1.0890513235731352,0,0,1.0890513235731352,115.68981243424822,161.93037931624926)"><path d="M0.94 9.74L0.56 9.90C1.19 11.77 2.24 12.71 3.71 12.71C4.62 12.71 5.32 12.45 5.78 11.93C6.25 11.41 6.48 10.77 6.48 10.01C6.48 9.66 6.42 9.35 6.31 9.06C6.19 8.78 6.06 8.55 5.92 8.37C5.77 8.19 5.57 8.02 5.31 7.86C5.04 7.70 4.83 7.58 4.67 7.50C4.51 7.43 4.28 7.34 4.00 7.22C3.97 7.21 3.85 7.16 3.65 7.08C3.46 7.01 3.34 6.96 3.29 6.94C3.24 6.91 3.14 6.87 2.97 6.80C2.80 6.73 2.69 6.67 2.64 6.64C2.59 6.60 2.50 6.54 2.37 6.45C2.24 6.37 2.15 6.30 2.10 6.24C2.05 6.18 1.99 6.10 1.90 6.00C1.82 5.90 1.76 5.80 1.73 5.70C1.70 5.61 1.67 5.50 1.64 5.38C1.61 5.25 1.60 5.12 1.60 4.98C1.60 4.41 1.79 3.95 2.19 3.62C2.59 3.29 3.08 3.12 3.67 3.12C4.80 3.12 5.58 3.77 6.02 5.07L6.43 4.90C6.22 4.23 5.88 3.69 5.42 3.29C4.95 2.89 4.37 2.69 3.68 2.69C2.99 2.69 2.39 2.90 1.88 3.33C1.37 3.76 1.12 4.33 1.12 5.04C1.12 5.39 1.19 5.71 1.34 5.99C1.48 6.27 1.70 6.51 1.98 6.71C2.27 6.91 2.52 7.07 2.75 7.17C2.98 7.28 3.28 7.41 3.64 7.55C3.92 7.65 4.11 7.72 4.21 7.77C4.32 7.82 4.49 7.90 4.73 8.02C4.97 8.13 5.15 8.24 5.26 8.34C5.36 8.45 5.49 8.58 5.63 8.75C5.78 8.92 5.88 9.11 5.94 9.32C5.99 9.54 6.02 9.78 6.02 10.05C6.02 10.72 5.83 11.27 5.45 11.68C5.08 12.09 4.51 12.29 3.75 12.29C2.52 12.29 1.58 11.44 0.94 9.74ZM15.44 2.80L15.44 12.60L15.86 12.60L15.86 2.80ZM32.24 2.80L32.24 11.79L24.75 2.45L24.75 12.60L25.17 12.60L25.17 3.61L32.66 12.95L32.66 2.80ZM41.52 7.70C41.52 6.33 41.90 5.22 42.66 4.38C43.43 3.53 44.43 3.11 45.68 3.11C46.88 3.11 47.93 3.54 48.83 4.41L48.83 3.81C47.98 3.06 46.93 2.69 45.68 2.69C44.33 2.69 43.22 3.16 42.36 4.09C41.49 5.03 41.06 6.23 41.06 7.70C41.06 9.17 41.49 10.37 42.36 11.30C43.22 12.24 44.33 12.71 45.68 12.71C46.93 12.71 47.98 12.34 48.83 11.59L48.83 11.03C47.96 11.87 46.91 12.29 45.68 12.29C44.43 12.29 43.43 11.87 42.66 11.03C41.90 10.18 41.52 9.07 41.52 7.70ZM58.63 7.48L62.97 7.48L62.97 7.08L58.63 7.08L58.63 3.21L63.25 3.21L63.25 2.80L58.21 2.80L58.21 12.60L63.25 12.60L63.25 12.19L58.63 12.19ZM84.04 3.96L86.39 3.22L86.39 12.60L86.84 12.60L86.84 2.66L84.04 3.50ZM98.97 12.60L101.95 8.22C102.43 7.53 102.68 6.79 102.68 6.02C102.68 5.03 102.38 4.23 101.79 3.61C101.19 3.00 100.45 2.69 99.55 2.69C98.66 2.69 97.91 3.00 97.32 3.61C96.73 4.23 96.43 5.03 96.43 6.02C96.43 6.96 96.72 7.74 97.29 8.35C97.87 8.96 98.55 9.27 99.33 9.27C100.09 9.27 100.68 9.09 101.12 8.74L98.48 12.60ZM102.24 6.02C102.24 6.86 101.96 7.55 101.41 8.09C100.85 8.62 100.24 8.89 99.55 8.89C98.76 8.89 98.12 8.62 97.62 8.07C97.13 7.52 96.88 6.84 96.88 6.02C96.88 5.18 97.12 4.48 97.60 3.93C98.08 3.38 98.73 3.11 99.55 3.11C100.34 3.11 100.98 3.38 101.49 3.91C101.99 4.45 102.24 5.15 102.24 6.02ZM113.61 12.60L116.59 8.22C117.08 7.53 117.32 6.79 117.32 6.02C117.32 5.03 117.02 4.23 116.43 3.61C115.84 3.00 115.09 2.69 114.20 2.69C113.30 2.69 112.56 3.00 111.97 3.61C111.37 4.23 111.08 5.03 111.08 6.02C111.08 6.96 111.36 7.74 111.94 8.35C112.51 8.96 113.19 9.27 113.97 9.27C114.73 9.27 115.33 9.09 115.77 8.74L113.12 12.60ZM116.89 6.02C116.89 6.86 116.61 7.55 116.05 8.09C115.50 8.62 114.88 8.89 114.20 8.89C113.40 8.89 112.76 8.62 112.27 8.07C111.77 7.52 111.52 6.84 111.52 6.02C111.52 5.18 111.76 4.48 112.25 3.93C112.73 3.38 113.38 3.11 114.20 3.11C114.98 3.11 115.63 3.38 116.13 3.91C116.63 4.45 116.89 5.15 116.89 6.02ZM126.21 7.70C126.21 6.34 126.48 5.23 127.02 4.38C127.55 3.53 128.26 3.11 129.15 3.11C130.04 3.11 130.75 3.53 131.29 4.38C131.82 5.23 132.09 6.34 132.09 7.70C132.09 9.01 131.82 10.10 131.28 10.98C130.74 11.85 130.03 12.29 129.15 12.29C128.27 12.29 127.56 11.85 127.02 10.98C126.48 10.10 126.21 9.01 126.21 7.70ZM125.79 7.70C125.79 9.17 126.10 10.38 126.72 11.31C127.34 12.25 128.15 12.71 129.15 12.71C130.15 12.71 130.96 12.25 131.58 11.31C132.20 10.38 132.51 9.17 132.51 7.70C132.51 6.23 132.20 5.02 131.58 4.09C130.96 3.15 130.15 2.69 129.15 2.69C128.15 2.69 127.34 3.15 126.72 4.09C126.10 5.02 125.79 6.23 125.79 7.70Z"></path></g></svg>